<svg width="49" height="47" viewBox="0 0 49 47" fill="none" xmlns="http://www.w3.org/2000/svg">
<g clip-path="url(#clip0_242_141)">
<path d="M40.1187 16.1177L40.1024 15.4249V2.32377L36.5225 5.94582C33.5928 2.31751 29.1355 0 24.1432 0C18.9475 0 14.3319 2.50891 11.4125 6.39274L17.2803 12.3917C17.8572 11.3172 18.674 10.3953 19.6591 9.69344C20.6836 8.88458 22.135 8.2233 24.143 8.2233C24.3856 8.2233 24.5727 8.25176 24.7104 8.30601C27.1981 8.50462 29.3547 9.89376 30.6241 11.9098L26.4687 16.1139L40.1165 16.1165" fill="#1C3AA9"/>
<path d="M24.05 0.000579834L23.3651 0.0189803H10.416L13.9959 3.64084C10.4094 6.60142 8.11871 11.1124 8.11871 16.1634C8.11871 21.418 10.5986 26.0894 14.4375 29.0415L20.367 23.1049C19.3056 22.5237 18.3925 21.7003 17.7002 20.7002C16.9008 19.6637 16.247 18.1952 16.247 16.1638C16.247 15.9183 16.2752 15.729 16.3288 15.5898C16.5251 13.0729 17.8982 10.891 19.8909 9.60677L24.0444 13.8089L24.047 0.00133862" fill="#4285F4"/>
<path d="M8.11926 16.163L8.13557 16.8558V29.9565L11.7155 26.3347C14.6454 29.963 19.1026 32.2805 24.095 32.2805C29.2888 32.2805 33.9061 29.7716 36.824 25.8878L30.9562 19.8888C30.3817 20.9627 29.5679 21.8864 28.5793 22.5869C27.5548 23.3957 26.1033 24.057 24.0954 24.057C23.8528 24.057 23.6656 24.0286 23.528 23.9743C21.0403 23.7757 18.8836 22.3866 17.6143 20.3705L21.7678 16.1683C16.5065 16.1873 10.5635 16.2015 8.12001 16.1657" fill="#ABABAB"/>
<path d="M10.8149 38.5401C10.4259 38.5401 10.0769 38.6148 9.76831 38.7639C9.46201 38.908 9.19318 39.1224 8.98325 39.3901C8.77194 39.6614 8.60919 39.9909 8.49519 40.3776C8.38269 40.7612 8.32906 41.1905 8.32906 41.6676V43.0372C8.32906 43.5158 8.38437 43.9468 8.49519 44.3303C8.60919 44.7139 8.77025 45.0413 8.97819 45.313C9.18612 45.5846 9.43756 45.7933 9.73306 45.939C10.0286 46.0846 10.3604 46.1579 10.7294 46.1579C11.1086 46.1579 11.4406 46.1019 11.7258 45.9898C12.0146 45.876 12.2559 45.7166 12.4505 45.5061C12.6451 45.2923 12.7944 45.0343 12.9005 44.7321C13.0079 44.4301 13.0715 44.0871 13.0917 43.704H12.1588C12.1353 43.9993 12.095 44.2541 12.038 44.4627C11.981 44.6714 11.8974 44.8412 11.7864 44.9749C11.6789 45.1073 11.5381 45.2058 11.3637 45.2703C11.1927 45.3314 10.9812 45.3619 10.73 45.3619C10.4619 45.3619 10.2335 45.3025 10.0456 45.1836C9.85775 45.0614 9.70512 44.8952 9.58775 44.6847C9.47375 44.476 9.38975 44.2283 9.33612 43.9449C9.28588 43.6632 9.26056 43.3595 9.26056 43.0336V41.6539C9.26056 41.3043 9.29056 40.987 9.35113 40.7016C9.41488 40.4165 9.5105 40.1739 9.638 39.9736C9.7655 39.7733 9.92675 39.6189 10.121 39.5104C10.3156 39.3965 10.547 39.3423 10.8155 39.3423C11.0405 39.3423 11.2331 39.3764 11.3941 39.4442C11.5554 39.5087 11.6892 39.6105 11.7967 39.7477C11.9041 39.8835 11.9842 40.0565 12.0433 40.2669C12.1023 40.4772 12.137 40.7284 12.1589 41.0203H13.0899C13.0711 40.622 13.0111 40.2654 12.9037 39.958C12.7963 39.6507 12.6468 39.3895 12.4537 39.1792C12.2606 38.9688 12.0294 38.8092 11.7543 38.7006C11.4824 38.5919 11.1689 38.5374 10.8131 38.5374L10.8149 38.5401ZM33.5399 38.5401C33.1509 38.5401 32.8019 38.6148 32.4933 38.7639C32.187 38.908 31.9182 39.1224 31.7083 39.3901C31.4969 39.6614 31.3342 39.9909 31.2202 40.3776C31.1077 40.7612 31.0541 41.1905 31.0541 41.6676V43.0372C31.0541 43.5158 31.1094 43.9468 31.2202 44.3303C31.3342 44.7139 31.4953 45.0413 31.7032 45.313C31.9111 45.5846 32.1626 45.7933 32.4581 45.939C32.7536 46.0846 33.0854 46.1579 33.4544 46.1579C33.8336 46.1579 34.1656 46.1019 34.4508 45.9898C34.7396 45.876 34.9809 45.7166 35.1755 45.5061C35.3701 45.2923 35.5194 45.0343 35.6255 44.7321C35.7329 44.4301 35.7965 44.0871 35.8167 43.704H34.8858C34.8624 43.9993 34.8221 44.2541 34.7651 44.4627C34.7081 44.6714 34.6244 44.8412 34.5134 44.9749C34.406 45.1073 34.2652 45.2058 34.0908 45.2703C33.9198 45.3314 33.7083 45.3619 33.4571 45.3619C33.1889 45.3619 32.9606 45.3025 32.7727 45.1836C32.5848 45.0614 32.4322 44.8952 32.3148 44.6847C32.2008 44.476 32.1168 44.2283 32.0632 43.9449C32.0129 43.6632 31.9876 43.3595 31.9876 43.0336V41.6539C31.9876 41.3043 32.0176 40.987 32.0782 40.7016C32.1419 40.4165 32.2376 40.1739 32.3651 39.9736C32.4926 39.7733 32.6538 39.6189 32.8481 39.5104C33.0427 39.3965 33.2741 39.3423 33.5426 39.3423C33.7676 39.3423 33.9601 39.3764 34.1212 39.4442C34.2824 39.5087 34.4163 39.6105 34.5238 39.7477C34.6312 39.8835 34.7113 40.0565 34.7703 40.2669C34.8294 40.4772 34.8641 40.7284 34.886 41.0203H35.8169C35.7982 40.622 35.7382 40.2654 35.6307 39.958C35.5233 39.6507 35.3739 39.3895 35.1808 39.1792C34.9876 38.9688 34.7564 38.8092 34.4814 38.7006C34.2095 38.5919 33.896 38.5374 33.5401 38.5374L33.5399 38.5401ZM16.1212 38.6419L13.7591 46.0543H14.705L15.2737 44.1198H17.7494L18.3281 46.0543H19.274L16.9089 38.6419H16.1212ZM20.2724 38.6419V46.0543H21.1912V43.1525H22.6049C22.9574 43.1525 23.2693 43.1032 23.5409 43.0049C23.8128 42.9031 24.0408 42.7572 24.2253 42.5671C24.4132 42.377 24.554 42.143 24.6479 41.8645C24.7454 41.5828 24.7938 41.2637 24.7938 40.9075C24.7938 40.5782 24.7451 40.2762 24.6479 40.0013C24.5542 39.723 24.4149 39.4838 24.2304 39.2835C24.0459 39.0799 23.8179 38.9221 23.5409 38.81C23.2691 38.6962 22.9572 38.6419 22.6049 38.6419H20.2724ZM25.5007 38.6419V39.4462H27.4229V46.0543H28.3417V39.4462H30.2692V38.6419H25.5007ZM37.0593 38.6419V46.0543H37.9781V42.628H40.925V46.0543H41.8509V38.6419H40.925V41.8288H37.9762V38.6419H37.0593ZM45.3468 38.6419L42.9867 46.0543H43.9327L44.5014 44.1198H46.9771L47.5558 46.0543H48.5L46.1349 38.6419H45.3468ZM21.1931 39.4462H22.6068C22.8318 39.4462 23.0227 39.487 23.1806 39.5684C23.3349 39.6443 23.4693 39.756 23.573 39.8943C23.6771 40.0301 23.7524 40.188 23.7995 40.3678C23.8498 40.5442 23.8751 40.7276 23.8751 40.9179C23.8751 41.1266 23.8499 41.322 23.7995 41.4984C23.7526 41.6714 23.6771 41.8209 23.573 41.9536C23.4723 42.0792 23.3414 42.1775 23.1806 42.249C23.0231 42.3203 22.8318 42.356 22.6068 42.356H21.1931V39.4462ZM16.5134 39.9451L17.5147 43.3153H15.515L16.5134 39.9451ZM45.7391 39.9451L46.7403 43.3153H44.7406L45.7391 39.9451ZM2.39375 40.444C2.16219 40.444 1.9625 40.5034 1.79488 40.6224C1.63044 40.7411 1.49487 40.9023 1.38238 41.1061L1.36738 40.5461H0.5V46.0545H1.39062V42.1139C1.47444 41.8797 1.5935 41.6966 1.74781 41.5591C1.90531 41.4232 2.105 41.3555 2.34669 41.3555L2.55294 41.3658C2.61885 41.3699 2.68443 41.3784 2.74925 41.3912L2.74419 40.5156C2.73069 40.5087 2.70894 40.5019 2.67856 40.4953C2.64911 40.4843 2.61882 40.4758 2.588 40.4698C2.55425 40.463 2.51919 40.4579 2.48225 40.4547C2.4485 40.4478 2.4185 40.4444 2.39169 40.4444L2.39375 40.444ZM5.38775 40.444C5.13159 40.4437 4.87749 40.4903 4.63775 40.5816C4.394 40.6732 4.18156 40.8244 3.99369 41.0368C3.80919 41.2455 3.65994 41.5154 3.54369 41.8514C3.42969 42.1839 3.37269 42.5912 3.37269 43.0783V43.6994C3.37269 44.1202 3.42144 44.4851 3.51856 44.7939C3.61569 45.1028 3.75481 45.3592 3.93613 45.5628C4.12063 45.7631 4.34375 45.9124 4.6055 46.0108C4.86725 46.1093 5.1605 46.1584 5.48619 46.1584C5.72094 46.1584 5.93056 46.1347 6.11525 46.0871C6.30312 46.0397 6.46925 45.9784 6.61344 45.9039C6.75781 45.8257 6.88156 45.7375 6.98581 45.639C7.09006 45.5406 7.17894 45.4387 7.25244 45.3355L6.78931 44.7653C6.71544 44.8569 6.63669 44.9417 6.55306 45.0199C6.46925 45.0946 6.37681 45.1608 6.27631 45.2185C6.17091 45.2737 6.05954 45.3163 5.94444 45.3456C5.82387 45.3778 5.68756 45.3915 5.53681 45.3915C5.12431 45.3915 4.80556 45.2574 4.58581 44.9893C4.36775 44.7213 4.25881 44.2918 4.25881 43.6994V43.5723H7.29631V43.048C7.29631 42.6272 7.26106 42.2554 7.19056 41.933C7.12006 41.6105 7.00775 41.3392 6.85344 41.1184C6.7033 40.9012 6.4982 40.7289 6.25962 40.6195C6.01813 40.5042 5.72619 40.4465 5.384 40.4465L5.38775 40.444ZM5.38775 41.218C5.58238 41.218 5.74344 41.2537 5.87075 41.325C5.99687 41.3949 6.10137 41.4989 6.17263 41.6253C6.24988 41.7543 6.30519 41.9087 6.33875 42.0885C6.37569 42.2649 6.39913 42.4603 6.40925 42.6739V42.7961H4.26388C4.27737 42.4873 4.31413 42.2308 4.37637 42.0272C4.43862 41.8237 4.51569 41.6625 4.61263 41.5435C4.71331 41.4214 4.829 41.3349 4.95988 41.2889C5.09075 41.243 5.23325 41.2176 5.38737 41.2176L5.38775 41.218Z" fill="#A6A6A6"/>
</g>
<defs>
<clipPath id="clip0_242_141">
<rect width="48" height="46.2857" fill="white" transform="translate(0.5)"/>
</clipPath>
</defs>
</svg>
